<svg id="fun_fact" data-name="fun fact" xmlns="http://www.w3.org/2000/svg" width="26.995" height="26.096" viewBox="0 0 26.995 26.096">
  <path id="Path_922" data-name="Path 922" d="M91.159,20.246C90.79,16.04,85.332,13.781,85.332,9a9,9,0,0,1,18,0c0,4.783-5.458,7.041-5.827,11.248" transform="translate(-80.833)" fill="#faca10"/>
  <path id="Path_923" data-name="Path 923" d="M96.6,20.247H91.159C90.79,16.04,85.332,13.781,85.332,9a9,9,0,0,1,9-9c.3,0,.594.014.886.041a10.023,10.023,0,0,0-4.936,8.643c0,4.949,5.237,7.478,6.321,11.563Zm0,0" transform="translate(-80.833)" fill="#ffde57"/>
  <path id="Path_924" data-name="Path 924" d="M111.384,46.515a.45.45,0,0,1-.45-.45,7.7,7.7,0,0,1,4.32-6.886.45.45,0,1,1,.393.809,6.8,6.8,0,0,0-3.813,6.076.45.45,0,0,1-.45.45Zm0,0" transform="translate(-105.085 -37.066)" fill="#f9eab0"/>
  <path id="Path_925" data-name="Path 925" d="M222.544,26.626a.45.45,0,0,1-.083-.892,7.658,7.658,0,0,1,1.422-.133.45.45,0,0,1,0,.9,6.767,6.767,0,0,0-1.255.117.459.459,0,0,1-.084.008Zm0,0" transform="translate(-210.385 -24.252)" fill="#f9eab0"/>
  <path id="Path_926" data-name="Path 926" d="M180.1,384h6.3a.9.9,0,1,1,0,1.8h-6.3a.9.9,0,1,1,0-1.8Zm0,0" transform="translate(-169.751 -363.754)" fill="#7f8284"/>
  <path id="Path_927" data-name="Path 927" d="M205.7,384h4.949a.9.9,0,0,1,0,1.8H205.7a.9.9,0,0,1,0-1.8Zm0,0" transform="translate(-194.002 -363.754)" fill="#a5a5a4"/>
  <path id="Path_928" data-name="Path 928" d="M180.1,418.133h6.3a.9.9,0,0,1,0,1.8h-6.3a.9.9,0,0,1,0-1.8Zm0,0" transform="translate(-169.751 -396.087)" fill="#56595e"/>
  <path id="Path_929" data-name="Path 929" d="M205.7,418.133h4.949a.9.9,0,0,1,0,1.8H205.7a.9.9,0,0,1,0-1.8Zm0,0" transform="translate(-194.002 -396.087)" fill="#7f8284"/>
  <path id="Path_930" data-name="Path 930" d="M213.332,452.266h4.5v1.35a.9.9,0,0,1-.9.9h-2.7a.9.9,0,0,1-.9-.9Zm0,0" transform="translate(-202.084 -428.42)" fill="#7f8284"/>
  <path id="Path_931" data-name="Path 931" d="M238.934,452.266h3.149v1.35a.9.9,0,0,1-.9.9h-1.35a.9.9,0,0,1-.9-.9Zm0,0" transform="translate(-226.336 -428.42)" fill="#a5a5a4"/>
  <path id="Path_932" data-name="Path 932" d="M181.9,163.482a1.35,1.35,0,1,1-1.35-1.35,1.35,1.35,0,0,1,1.35,1.35Zm0,0" transform="translate(-169.75 -153.584)" fill="#2c2f38"/>
  <path id="Path_933" data-name="Path 933" d="M188.634,171.118a.45.45,0,1,1-.45-.45A.45.45,0,0,1,188.634,171.118Zm0,0" transform="translate(-177.836 -161.669)" fill="#fff"/>
  <path id="Path_934" data-name="Path 934" d="M284.3,163.482a1.35,1.35,0,1,1-1.35-1.35A1.35,1.35,0,0,1,284.3,163.482Zm0,0" transform="translate(-266.754 -153.584)" fill="#2c2f38"/>
  <path id="Path_935" data-name="Path 935" d="M291.032,171.118a.45.45,0,1,1-.45-.45A.45.45,0,0,1,291.032,171.118Zm0,0" transform="translate(-274.835 -161.669)" fill="#fff"/>
  <path id="Path_936" data-name="Path 936" d="M194.933,239.934a3.6,3.6,0,0,1-7.2,0,3.418,3.418,0,0,1,.15-1h6.9a3.419,3.419,0,0,1,.15,1Zm0,0" transform="translate(-177.836 -226.336)" fill="#2c2f38"/>
  <path id="Path_937" data-name="Path 937" d="M215.773,282.978a3.656,3.656,0,0,1-4.742,0l.076-.094a2.694,2.694,0,0,1,4.589,0Zm0,0" transform="translate(-199.905 -266.754)" fill="#ff5364"/>
  <g id="Group_1625" data-name="Group 1625" transform="translate(0 2.024)">
    <path id="Path_938" data-name="Path 938" d="M2.7,163.032H.45a.45.45,0,1,1,0-.9H2.7a.45.45,0,1,1,0,.9Zm0,0" transform="translate(0 -155.608)" fill="#f3d55b"/>
    <path id="Path_939" data-name="Path 939" d="M33.6,266.558a.45.45,0,0,1-.225-.84l1.948-1.125a.45.45,0,1,1,.45.779L33.829,266.5A.449.449,0,0,1,33.6,266.558Zm0,0" transform="translate(-31.406 -252.61)" fill="#f3d55b"/>
    <path id="Path_940" data-name="Path 940" d="M427.23,266.539a.447.447,0,0,1-.224-.06l-1.948-1.125a.45.45,0,0,1,.45-.78l1.948,1.125a.45.45,0,0,1-.225.84Zm0,0" transform="translate(-402.433 -252.591)" fill="#f3d55b"/>
    <path id="Path_941" data-name="Path 941" d="M454.965,163.017h-2.249a.45.45,0,1,1,0-.9h2.249a.45.45,0,1,1,0,.9Zm0,0" transform="translate(-428.42 -155.594)" fill="#f3d55b"/>
    <path id="Path_942" data-name="Path 942" d="M425.272,40.4a.45.45,0,0,1-.225-.839l1.948-1.125a.45.45,0,0,1,.45.78L425.5,40.344a.445.445,0,0,1-.228.056Zm0,0" transform="translate(-402.423 -38.38)" fill="#f3d55b"/>
    <path id="Path_943" data-name="Path 943" d="M35.547,40.422a.449.449,0,0,1-.224-.06l-1.948-1.125a.45.45,0,1,1,.45-.779l1.948,1.125a.45.45,0,0,1-.225.84Zm0,0" transform="translate(-31.401 -38.396)" fill="#f3d55b"/>
  </g>
</svg>
