<svg xmlns="http://www.w3.org/2000/svg" width="18.879" height="20.938" viewBox="0 0 18.879 20.938">
  <path id="icons8_thumbs_up" d="M14.57,1.043c.879,1.461-.117,3.289-.859,4.883-.641,1.371-.543,2.926,1.172,2.727,2.066-.238,2.9-.4,4.66-.523,1.777-.121,2.336.605,2.336,1.281,0,1.09-.363,1.172-.363,1.59s1.363.148,1.363,1.519-1.066,1.328-1.066,1.711,1.039.555,1.039,1.652-1.4,1.242-1.4,1.7.453.57.453,1.25S20.488,21,15.488,21C6.969,21,7.977,18.961,4,18.961V11.418c2.07,0,1.957-1.832,3.387-3.231s4.2-4.605,4.742-7.125C12.488-.625,14.031.141,14.57,1.043Z" transform="translate(-4 -0.062)" fill="#342b38"/>
</svg>
