<svg xmlns="http://www.w3.org/2000/svg" width="39.279" height="32.609" viewBox="0 0 39.279 32.609">
  <path id="icons8_mail" d="M15.817,20A4.808,4.808,0,0,0,11,24.817V47.791a4.808,4.808,0,0,0,4.817,4.817H45.461a4.769,4.769,0,0,0,4.817-4.447V24.817A4.808,4.808,0,0,0,45.461,20Zm0,2.223H45.461a2.578,2.578,0,0,1,2.594,2.594V48.162a2.561,2.561,0,0,1-2.594,2.223H15.817a2.578,2.578,0,0,1-2.594-2.594V24.817A2.578,2.578,0,0,1,15.817,22.223Zm1.233,6.954a1.112,1.112,0,0,0-.823,1.84,44.006,44.006,0,0,0,4.661,4.615c2.719,2.309,6.2,4.748,9.752,4.748s7.032-2.439,9.752-4.748a44.019,44.019,0,0,0,4.661-4.615,1.112,1.112,0,1,0-1.7-1.433,41.846,41.846,0,0,1-4.4,4.353c-2.561,2.175-5.865,4.219-8.313,4.219s-5.752-2.045-8.313-4.219a41.847,41.847,0,0,1-4.4-4.353,1.112,1.112,0,0,0-.877-.407Z" transform="translate(-11 -20)" fill="#c4c4c4"/>
</svg>
