<svg xmlns="http://www.w3.org/2000/svg" width="34.139" height="27.312" viewBox="0 0 34.139 27.312">
  <path id="upload_cover_photo" data-name="upload cover photo" d="M31.018,7.413H28.312L26.6,5.707A6.4,6.4,0,0,0,22.483,4H15.656a6.4,6.4,0,0,0-4.12,1.707L9.829,7.413H7.12A5.127,5.127,0,0,0,2,12.536V26.192a5.127,5.127,0,0,0,5.12,5.12h23.9a5.127,5.127,0,0,0,5.12-5.12V12.536a5.127,5.127,0,0,0-5.12-5.122ZM19.069,24.483a5.975,5.975,0,1,1,5.975-5.975A5.975,5.975,0,0,1,19.069,24.483Zm10.242-8.024A2.218,2.218,0,1,1,31.53,14.24,2.218,2.218,0,0,1,29.312,16.459Z" transform="translate(-2 -4)" fill="#fff"/>
</svg>
