<svg xmlns="http://www.w3.org/2000/svg" width="26" height="24" viewBox="0 0 26 24">
  <g id="Group_202" data-name="Group 202" transform="translate(-1736 -50)">
    <path id="icons8_logout_rounded_left" d="M14,1A11.992,11.992,0,0,0,3.494,7.234,2.466,2.466,0,0,1,4.49,7a2.515,2.515,0,0,1,1.191.3c.03.016.052.042.082.059a10,10,0,1,1,0,11.279c-.031.018-.056.045-.088.063A2.512,2.512,0,0,1,4.49,19a2.474,2.474,0,0,1-.994-.234A11.992,11.992,0,1,0,14,1ZM4.465,9a.507.507,0,0,0-.258.086,27.433,27.433,0,0,0-4.1,3.6A.512.512,0,0,0,0,13a.518.518,0,0,0,.109.318,27.554,27.554,0,0,0,4.1,3.6.506.506,0,0,0,.523.025A.513.513,0,0,0,5,16.486V14.75s9.369-.295,9.551-.424A1.863,1.863,0,0,0,15,13a1.67,1.67,0,0,0-.449-1.25c-.181-.13-9.551-.5-9.551-.5V9.512A.512.512,0,0,0,4.465,9Z" transform="translate(1736 49)" fill="#fff"/>
  </g>
</svg>
