<svg xmlns="http://www.w3.org/2000/svg" width="26.891" height="28.304" viewBox="0 0 26.891 28.304">
  <path id="active_home" data-name="active home" d="M9.4,26.58V22.241a2.008,2.008,0,0,1,2-1.995h4.07a2.008,2.008,0,0,1,2.014,2h0v4.319A1.742,1.742,0,0,0,19.225,28.3H22a4.9,4.9,0,0,0,3.459-1.419,4.826,4.826,0,0,0,1.433-3.429V11.131a3.5,3.5,0,0,0-1.268-2.693L16.194.954a4.409,4.409,0,0,0-5.6.1L1.368,8.44A3.5,3.5,0,0,0,0,11.131V23.448A4.873,4.873,0,0,0,4.891,28.3H7.608a1.742,1.742,0,0,0,1.235-.5A1.716,1.716,0,0,0,9.36,26.58Z" transform="translate(0 0)" fill="#c4c4c4"/>
</svg>
