<svg xmlns="http://www.w3.org/2000/svg" width="35.523" height="41.347" viewBox="0 0 35.523 41.347">
  <g id="Notification" transform="translate(1.25 1.25)">
    <path id="Path_856" data-name="Path 856" d="M0,22.892v-.425a6.991,6.991,0,0,1,1.168-3.531,9.459,9.459,0,0,0,2.319-4.495c0-1.295,0-2.607.113-3.9C4.185,4.308,10.347,0,16.433,0h.158c6.086,0,12.248,4.308,12.85,10.539.113,1.295,0,2.607.094,3.9a9.622,9.622,0,0,0,2.317,4.512,6.815,6.815,0,0,1,1.168,3.514v.407a6.926,6.926,0,0,1-1.639,4.639,8.748,8.748,0,0,1-5.547,2.663,87.538,87.538,0,0,1-18.673,0,8.845,8.845,0,0,1-5.547-2.663A7,7,0,0,1,0,22.892ZM11.76,36.611a5.992,5.992,0,0,0,8.329.979,5.61,5.61,0,0,0,1.017-.979" transform="translate(0.001)" fill="none" stroke="#c4c4c4" stroke-linecap="round" stroke-linejoin="round" stroke-width="2.5" fill-rule="evenodd"/>
  </g>
</svg>
