<svg xmlns="http://www.w3.org/2000/svg" width="21.347" height="21.353" viewBox="0 0 21.347 21.353">
  <path id="icons8_edit_1" d="M16.756.25A1.872,1.872,0,0,0,15.4.8l-.833.859,5.492,5.518.833-.859a1.932,1.932,0,0,0,0-2.733L18.135.823A1.969,1.969,0,0,0,16.756.25ZM13.632,2.41l-1.3,1.249,5.726,5.726,1.327-1.223ZM11.5,4.571,2.492,13.5a.815.815,0,0,0-.416.521L.149,20.552a.812.812,0,0,0,1.015,1.015L7.7,19.641a.815.815,0,0,0,.651-.547l8.876-8.8L16,9.074,6.891,18.21l-3.67,1.067L2.44,18.5,3.559,14.67l9.032-9.006Zm1.978,2L4.34,15.737l1.327.286.182,1.223,9.162-9.136Z" transform="translate(-0.114 -0.25)" fill="#fff"/>
</svg>
