<svg xmlns="http://www.w3.org/2000/svg" width="25.721" height="21.354" viewBox="0 0 25.721 21.354">
  <path id="icons8_mail" d="M14.155,20A3.148,3.148,0,0,0,11,23.155V38.2a3.148,3.148,0,0,0,3.155,3.155H33.567a3.123,3.123,0,0,0,3.155-2.912V23.155A3.148,3.148,0,0,0,33.567,20Zm0,1.456H33.567a1.688,1.688,0,0,1,1.7,1.7V38.442a1.677,1.677,0,0,1-1.7,1.456H14.155a1.688,1.688,0,0,1-1.7-1.7V23.155A1.688,1.688,0,0,1,14.155,21.456Zm.807,4.554a.728.728,0,0,0-.539,1.205,28.817,28.817,0,0,0,3.052,3.022c1.781,1.512,4.058,3.109,6.386,3.109s4.605-1.6,6.386-3.109A28.826,28.826,0,0,0,33.3,27.215a.728.728,0,0,0-1.113-.938,27.4,27.4,0,0,1-2.881,2.85c-1.677,1.424-3.841,2.763-5.444,2.763s-3.767-1.339-5.444-2.763a27.4,27.4,0,0,1-2.881-2.85.728.728,0,0,0-.574-.267Z" transform="translate(-11 -20)" fill="#fff"/>
</svg>
