<svg xmlns="http://www.w3.org/2000/svg" width="24.883" height="25.015" viewBox="0 0 24.883 25.015">
  <g id="active_profile" data-name="active profile" transform="translate(-363.591 -876)">
    <circle id="Ellipse_3" data-name="Ellipse 3" cx="4.997" cy="4.997" r="4.997" transform="translate(371.043 876)" fill="#342b38"/>
    <path id="Path_858" data-name="Path 858" d="M25.874,24.859a12.549,12.549,0,0,0-3.427-6.22A10.384,10.384,0,0,0,21.1,17.5,12.491,12.491,0,0,0,13.5,15a12.69,12.69,0,0,0-8.961,3.639A12.549,12.549,0,0,0,1.115,24.86a2.848,2.848,0,0,0,.574,2.4,2.931,2.931,0,0,0,2.295,1.066H23.01a2.931,2.931,0,0,0,2.295-1.1,2.848,2.848,0,0,0,.57-2.366Z" transform="translate(362.54 872.691)" fill="#342b38"/>
  </g>
</svg>
