<svg xmlns="http://www.w3.org/2000/svg" width="26.733" height="27.104" viewBox="0 0 26.733 27.104">
  <path id="active_quiz" data-name="active quiz" d="M2.414,27.1h0a7.021,7.021,0,0,1-1.746-.238,11.448,11.448,0,0,0,.947-3.111A10.932,10.932,0,0,0,1,18.245,12.76,12.76,0,0,1,2.3,5.953,12.677,12.677,0,0,1,13.281,0c.414,0,.835.017,1.266.05a13.139,13.139,0,0,1,7.886,3.478A13.376,13.376,0,0,1,24.46,20.784,13.181,13.181,0,0,1,16.294,26.3a14,14,0,0,1-2.972.329,12.923,12.923,0,0,1-5.44-1.209,1.789,1.789,0,0,0-.751-.186,1.622,1.622,0,0,0-1.073.477A5.422,5.422,0,0,1,2.414,27.1Zm10.869-9.849a1.328,1.328,0,0,0-.962.383,1.271,1.271,0,0,0-.392.944,1.237,1.237,0,0,0,.405.984,1.4,1.4,0,0,0,.954.352,1.351,1.351,0,0,0,.925-.358,1.246,1.246,0,0,0,.4-.979,1.312,1.312,0,0,0-1.327-1.327ZM13.5,8.31a1.949,1.949,0,0,1,1.368.489,1.585,1.585,0,0,1,.529,1.2,1.369,1.369,0,0,1-.174.676,2.606,2.606,0,0,1-.427.566c-.174.173-.452.427-.825.752a14.013,14.013,0,0,0-1.034.985,3.159,3.159,0,0,0-.847,2.257,1.192,1.192,0,0,0,.316.9,1.09,1.09,0,0,0,.78.3.995.995,0,0,0,1.059-.928c.062-.275.113-.487.148-.609a1.748,1.748,0,0,1,.137-.347,1.994,1.994,0,0,1,.272-.383,6.143,6.143,0,0,1,.485-.485c.725-.649,1.237-1.117,1.519-1.394a4.085,4.085,0,0,0,.731-.985,2.764,2.764,0,0,0,.308-1.326A3.2,3.2,0,0,0,17.3,8.2a3.716,3.716,0,0,0-1.529-1.3,5.216,5.216,0,0,0-2.281-.477A5.008,5.008,0,0,0,11.06,7,4.209,4.209,0,0,0,9.474,8.438a3.244,3.244,0,0,0-.54,1.715,1.084,1.084,0,0,0,.342.762,1.136,1.136,0,0,0,.843.352c.56,0,.948-.339,1.148-1.006A3.966,3.966,0,0,1,12.052,8.8,1.9,1.9,0,0,1,13.5,8.308Z" transform="translate(0.012 0.002)" fill="#c4c4c4"/>
</svg>
